<svg width="543" height="242" viewBox="0 0 543 242" fill="none" xmlns="http://www.w3.org/2000/svg">
<path d="M19.264 63.704C16.9173 63.704 14.7413 63.512 12.736 63.128C10.7733 62.744 8.704 62.232 6.528 61.592C5.12 61.1653 4.096 60.9307 3.456 60.888L4.032 48.92H9.984L11.584 57.112C12.0533 57.6667 12.9067 58.1573 14.144 58.584C15.424 59.0107 16.9387 59.224 18.688 59.224C21.2907 59.224 23.232 58.648 24.512 57.496C25.8347 56.344 26.496 54.7653 26.496 52.76C26.496 51.352 26.0693 50.136 25.216 49.112C24.4053 48.0453 23.2533 47.0853 21.76 46.232C20.3093 45.336 18.304 44.312 15.744 43.16C12.3733 41.624 9.51467 39.6827 7.168 37.336C4.864 34.9467 3.712 31.8107 3.712 27.928C3.712 25.5387 4.33067 23.3627 5.568 21.4C6.80533 19.4373 8.68267 17.8587 11.2 16.664C13.7173 15.4693 16.8533 14.872 20.608 14.872C22.8693 14.872 24.832 15.0213 26.496 15.32C28.2027 15.6187 30.016 16.024 31.936 16.536C32.96 16.8773 33.7493 17.0693 34.304 17.112L33.92 28.504H28.096L26.624 20.632C26.3253 20.248 25.6427 19.9067 24.576 19.608C23.552 19.2667 22.4 19.096 21.12 19.096C18.7733 19.096 17.0027 19.6507 15.808 20.76C14.656 21.8693 14.08 23.2987 14.08 25.048C14.08 26.584 14.5707 27.928 15.552 29.08C16.5333 30.232 17.7067 31.2133 19.072 32.024C20.48 32.792 22.6133 33.88 25.472 35.288C27.7333 36.3973 29.696 37.528 31.36 38.68C33.0667 39.7893 34.5173 41.24 35.712 43.032C36.9067 44.824 37.504 46.9147 37.504 49.304C37.504 51.6507 36.928 53.912 35.776 56.088C34.6667 58.264 32.7467 60.0773 30.016 61.528C27.2853 62.9787 23.7013 63.704 19.264 63.704ZM44.568 16.792L40.024 15.96V12.056L52.888 10.52H53.08L54.936 11.864L55 25.752L54.488 31.448C55.8107 30.2107 57.56 29.1227 59.736 28.184C61.912 27.2027 64.3013 26.712 66.904 26.712C69.592 26.712 71.6827 27.2027 73.176 28.184C74.6693 29.1653 75.7147 30.6587 76.312 32.664C76.9093 34.6693 77.208 37.336 77.208 40.664V58.2L81.112 58.776V63H63.32V58.776L66.712 58.2V40.728C66.712 37.7413 66.392 35.672 65.752 34.52C65.112 33.3253 63.8107 32.728 61.848 32.728C60.6533 32.728 59.4587 33.0053 58.264 33.56C57.0693 34.072 56.0667 34.712 55.256 35.48V58.2L58.776 58.776V63H41.24V58.776L44.568 58.2V16.792ZM85.1925 45.4C85.1925 41.304 86.0032 37.848 87.6245 35.032C89.2458 32.1733 91.4218 30.04 94.1525 28.632C96.9258 27.224 99.9552 26.52 103.241 26.52C108.617 26.52 112.819 28.1413 115.849 31.384C118.921 34.584 120.457 39.064 120.457 44.824C120.457 49.048 119.646 52.568 118.025 55.384C116.403 58.2 114.227 60.2907 111.497 61.656C108.766 63.0213 105.715 63.704 102.345 63.704C97.0112 63.704 92.8085 62.104 89.7365 58.904C86.7072 55.6613 85.1925 51.16 85.1925 45.4ZM102.985 59.224C105.033 59.224 106.547 58.136 107.529 55.96C108.553 53.7413 109.065 50.2853 109.065 45.592C109.065 40.6 108.574 36.9307 107.593 34.584C106.654 32.1947 105.054 31 102.793 31C98.6112 31 96.5205 35.544 96.5205 44.632C96.5205 49.5813 97.0325 53.2507 98.0565 55.64C99.0805 58.0293 100.723 59.224 102.985 59.224ZM162.159 44.056C162.159 47.5973 161.412 50.8613 159.919 53.848C158.468 56.8347 156.292 59.224 153.391 61.016C150.532 62.808 147.076 63.704 143.023 63.704C142.34 63.704 141.594 63.64 140.783 63.512C140.015 63.384 139.418 63.2347 138.991 63.064L139.183 68.248V73.688L144.687 74.52V78.488H125.039V74.52L128.943 73.688V34.136L125.039 32.984V27.992L136.495 26.584H136.623L138.351 27.928V31.384C139.332 30.0613 140.698 28.9307 142.447 27.992C144.239 27.0107 146.18 26.52 148.271 26.52C152.367 26.52 155.695 27.9707 158.255 30.872C160.858 33.7307 162.159 38.1253 162.159 44.056ZM144.495 32.408C143.386 32.408 142.34 32.6427 141.359 33.112C140.378 33.5387 139.652 34.072 139.183 34.712V58.136C139.482 58.52 139.994 58.84 140.719 59.096C141.487 59.352 142.319 59.48 143.215 59.48C145.604 59.48 147.503 58.328 148.911 56.024C150.362 53.72 151.087 49.9867 151.087 44.824C151.087 40.6427 150.49 37.528 149.295 35.48C148.1 33.432 146.5 32.408 144.495 32.408ZM185.772 34.136L181.996 32.984V27.992L193.644 26.584H193.836L195.5 27.928V30.296L195.436 31.768C196.929 30.36 198.828 29.1653 201.132 28.184C203.436 27.2027 205.847 26.712 208.364 26.712C210.924 26.712 212.929 27.1813 214.38 28.12C215.873 29.016 216.94 30.4667 217.58 32.472C218.263 34.4773 218.604 37.208 218.604 40.664V58.2L222.188 58.712V63H204.78V58.776L207.916 58.2V40.728C207.916 38.68 207.767 37.1013 207.468 35.992C207.212 34.84 206.743 34.008 206.06 33.496C205.377 32.984 204.396 32.728 203.116 32.728C201.153 32.728 198.935 33.6453 196.46 35.48V58.2L199.98 58.776V63H182.252V58.776L185.772 58.2V34.136ZM242.95 63.704C237.105 63.704 232.774 62.0613 229.958 58.776C227.142 55.448 225.734 50.9253 225.734 45.208C225.734 41.3253 226.459 37.976 227.91 35.16C229.361 32.344 231.387 30.2107 233.99 28.76C236.635 27.2667 239.729 26.52 243.27 26.52C247.75 26.52 251.163 27.6507 253.51 29.912C255.899 32.1733 257.137 35.3733 257.222 39.512C257.222 42.2427 257.03 44.44 256.646 46.104H236.614C236.827 49.7307 237.702 52.504 239.238 54.424C240.817 56.3013 243.014 57.24 245.83 57.24C247.409 57.24 249.051 56.984 250.758 56.472C252.507 55.9173 253.915 55.2987 254.982 54.616L256.774 58.52C255.665 59.7573 253.766 60.9307 251.078 62.04C248.433 63.1493 245.723 63.704 242.95 63.704ZM247.046 41.88L247.11 39.192C247.11 36.504 246.747 34.456 246.022 33.048C245.297 31.64 244.059 30.936 242.31 30.936C240.518 30.936 239.131 31.7253 238.15 33.304C237.169 34.84 236.635 37.6987 236.55 41.88H247.046ZM260.98 52.76C260.98 49.0053 262.878 46.1253 266.676 44.12C270.516 42.1147 275.55 41.0907 281.78 41.048V39.768C281.78 38.232 281.609 37.016 281.268 36.12C280.926 35.224 280.308 34.5627 279.412 34.136C278.516 33.6667 277.193 33.432 275.444 33.432C273.353 33.432 271.476 33.688 269.812 34.2C268.19 34.6693 266.484 35.3093 264.692 36.12L262.516 31.512C263.198 30.9573 264.308 30.296 265.844 29.528C267.38 28.7173 269.214 28.0347 271.348 27.48C273.524 26.8827 275.785 26.584 278.132 26.584C281.545 26.584 284.212 27.032 286.132 27.928C288.094 28.824 289.481 30.2107 290.292 32.088C291.145 33.9653 291.572 36.5253 291.572 39.768V58.776H294.9V62.808C293.918 63.0213 292.553 63.2347 290.804 63.448C289.054 63.6613 287.561 63.768 286.324 63.768C284.702 63.768 283.614 63.5333 283.06 63.064C282.548 62.5947 282.292 61.656 282.292 60.248V58.776C281.225 60.056 279.796 61.208 278.003 62.232C276.212 63.2133 274.142 63.704 271.796 63.704C269.79 63.704 267.956 63.2773 266.292 62.424C264.67 61.528 263.369 60.2693 262.388 58.648C261.449 56.984 260.98 55.0213 260.98 52.76ZM276.788 57.816C277.556 57.816 278.409 57.6027 279.348 57.176C280.286 56.7067 281.097 56.152 281.78 55.512V45.336C278.452 45.336 275.977 45.9333 274.356 47.128C272.777 48.3227 271.988 49.8587 271.988 51.736C271.988 53.656 272.414 55.1493 273.268 56.216C274.121 57.2827 275.294 57.816 276.788 57.816ZM298.44 58.776L302.344 58.2V34.136L298.568 32.984V27.992L309.192 26.584H309.384L311.176 27.928V29.464L310.984 34.776H311.176C311.474 33.7947 312.157 32.664 313.224 31.384C314.29 30.0613 315.634 28.9307 317.256 27.992C318.92 27.0107 320.712 26.52 322.632 26.52C323.741 26.52 324.594 26.6693 325.192 26.968V38.104C324.509 37.592 323.762 37.1867 322.952 36.888C322.184 36.5893 321.181 36.44 319.944 36.44C318.408 36.44 317.021 36.6533 315.784 37.08C314.546 37.464 313.565 37.912 312.84 38.424V58.2L319.88 58.84V63H298.44V58.776ZM350.585 78.936C349.689 78.936 348.75 78.872 347.769 78.744C346.83 78.616 346.148 78.4453 345.721 78.232V70.552C346.02 70.7653 346.66 70.9573 347.641 71.128C348.622 71.3413 349.518 71.448 350.329 71.448C352.505 71.448 354.233 70.7653 355.513 69.4C356.793 68.0347 357.966 65.9013 359.033 63H355.321L343.353 32.28L340.537 31.512V27.416H359.417V31.512L354.937 32.28L360.249 49.304L362.169 55.768L363.705 49.304L368.633 32.216L364.793 31.512V27.416H379.257V31.512L376.185 32.216C374.393 37.72 372.196 44.184 369.593 51.608C367.033 59.032 365.604 63.0853 365.305 63.768C364.025 67.3093 362.724 70.1467 361.401 72.28C360.121 74.456 358.606 76.0987 356.857 77.208C355.108 78.36 353.017 78.936 350.585 78.936ZM381.193 45.4C381.193 41.304 382.003 37.848 383.625 35.032C385.246 32.1733 387.422 30.04 390.153 28.632C392.926 27.224 395.955 26.52 399.241 26.52C404.617 26.52 408.819 28.1413 411.849 31.384C414.921 34.584 416.457 39.064 416.457 44.824C416.457 49.048 415.646 52.568 414.025 55.384C412.403 58.2 410.227 60.2907 407.497 61.656C404.766 63.0213 401.715 63.704 398.345 63.704C393.011 63.704 388.809 62.104 385.737 58.904C382.707 55.6613 381.193 51.16 381.193 45.4ZM398.985 59.224C401.033 59.224 402.547 58.136 403.529 55.96C404.553 53.7413 405.065 50.2853 405.065 45.592C405.065 40.6 404.574 36.9307 403.593 34.584C402.654 32.1947 401.054 31 398.793 31C394.611 31 392.521 35.544 392.521 44.632C392.521 49.5813 393.033 53.2507 394.057 55.64C395.081 58.0293 396.723 59.224 398.985 59.224ZM450.927 63.64C449.391 63.64 448.282 63.32 447.599 62.68C446.916 61.9973 446.575 61.016 446.575 59.736V58.328C445.551 59.736 444.015 60.9947 441.967 62.104C439.919 63.1707 437.85 63.704 435.759 63.704C431.578 63.704 428.591 62.68 426.799 60.632C425.05 58.5413 424.175 55.064 424.175 50.2V32.408L421.167 31.576V27.48L433.199 26.648H433.263L434.671 27.544V50.456C434.671 53.2293 435.012 55.1707 435.695 56.28C436.378 57.3467 437.594 57.88 439.343 57.88C441.732 57.88 443.738 57.0693 445.359 55.448V32.408L441.391 31.448V27.48L454.063 26.648H454.255L455.791 27.544V58.584H459.183V62.68C457.732 62.9787 456.388 63.2133 455.151 63.384C453.956 63.5547 452.548 63.64 450.927 63.64ZM19.2 143.704C13.3547 143.704 9.024 142.061 6.208 138.776C3.392 135.448 1.984 130.925 1.984 125.208C1.984 121.325 2.70933 117.976 4.16 115.16C5.61067 112.344 7.63733 110.211 10.24 108.76C12.8853 107.267 15.9787 106.52 19.52 106.52C24 106.52 27.4133 107.651 29.76 109.912C32.1493 112.173 33.3867 115.373 33.472 119.512C33.472 122.243 33.28 124.44 32.896 126.104H12.864C13.0773 129.731 13.952 132.504 15.488 134.424C17.0667 136.301 19.264 137.24 22.08 137.24C23.6587 137.24 25.3013 136.984 27.008 136.472C28.7573 135.917 30.1653 135.299 31.232 134.616L33.024 138.52C31.9147 139.757 30.016 140.931 27.328 142.04C24.6827 143.149 21.9733 143.704 19.2 143.704ZM23.296 121.88L23.36 119.192C23.36 116.504 22.9973 114.456 22.272 113.048C21.5467 111.64 20.3093 110.936 18.56 110.936C16.768 110.936 15.3813 111.725 14.4 113.304C13.4187 114.84 12.8853 117.699 12.8 121.88H23.296ZM37.2295 132.76C37.2295 129.005 39.1282 126.125 42.9255 124.12C46.7655 122.115 51.8002 121.091 58.0295 121.048V119.768C58.0295 118.232 57.8588 117.016 57.5175 116.12C57.1762 115.224 56.5575 114.563 55.6615 114.136C54.7655 113.667 53.4428 113.432 51.6935 113.432C49.6028 113.432 47.7255 113.688 46.0615 114.2C44.4402 114.669 42.7335 115.309 40.9415 116.12L38.7655 111.512C39.4482 110.957 40.5575 110.296 42.0935 109.528C43.6295 108.717 45.4642 108.035 47.5975 107.48C49.7735 106.883 52.0348 106.584 54.3815 106.584C57.7948 106.584 60.4615 107.032 62.3815 107.928C64.3442 108.824 65.7308 110.211 66.5415 112.088C67.3948 113.965 67.8215 116.525 67.8215 119.768V138.776H71.1495V142.808C70.1682 143.021 68.8028 143.235 67.0535 143.448C65.3042 143.661 63.8108 143.768 62.5735 143.768C60.9522 143.768 59.8642 143.533 59.3095 143.064C58.7975 142.595 58.5415 141.656 58.5415 140.248V138.776C57.4748 140.056 56.0455 141.208 54.2535 142.232C52.4615 143.213 50.3922 143.704 48.0455 143.704C46.0402 143.704 44.2055 143.277 42.5415 142.424C40.9202 141.528 39.6188 140.269 38.6375 138.648C37.6988 136.984 37.2295 135.021 37.2295 132.76ZM53.0375 137.816C53.8055 137.816 54.6588 137.603 55.5975 137.176C56.5362 136.707 57.3468 136.152 58.0295 135.512V125.336C54.7015 125.336 52.2268 125.933 50.6055 127.128C49.0268 128.323 48.2375 129.859 48.2375 131.736C48.2375 133.656 48.6642 135.149 49.5175 136.216C50.3708 137.283 51.5442 137.816 53.0375 137.816ZM82.6255 137.688C82.9242 138.157 83.6068 138.584 84.6735 138.968C85.7828 139.352 86.8922 139.544 88.0015 139.544C89.7508 139.544 91.0735 139.181 91.9695 138.456C92.9082 137.688 93.3775 136.707 93.3775 135.512C93.3775 134.232 92.7802 133.187 91.5855 132.376C90.3908 131.523 88.4282 130.499 85.6975 129.304L83.2655 128.216C80.4922 126.979 78.4015 125.485 76.9935 123.736C75.6282 121.944 74.9455 119.683 74.9455 116.952C74.9455 114.989 75.5215 113.24 76.6735 111.704C77.8255 110.125 79.4895 108.888 81.6655 107.992C83.8415 107.096 86.4015 106.648 89.3455 106.648C91.3935 106.648 93.1642 106.776 94.6575 107.032C96.1508 107.288 97.6655 107.608 99.2015 107.992C100.226 108.291 100.994 108.461 101.506 108.504V117.208H95.8095L94.1455 112.28C93.9322 111.896 93.4202 111.555 92.6095 111.256C91.7988 110.915 90.8815 110.744 89.8575 110.744C88.2362 110.744 86.9562 111.107 86.0175 111.832C85.0788 112.515 84.6095 113.453 84.6095 114.648C84.6095 116.013 85.1428 117.101 86.2095 117.912C87.2762 118.68 88.9828 119.597 91.3295 120.664L92.6735 121.24C96.1295 122.691 98.8388 124.269 100.802 125.976C102.764 127.64 103.746 129.944 103.746 132.888C103.746 136.045 102.487 138.648 99.9695 140.696C97.4522 142.701 93.7402 143.704 88.8335 143.704C86.5722 143.704 84.5668 143.512 82.8175 143.128C81.0682 142.787 79.1482 142.317 77.0575 141.72L74.9455 141.144V132.632H81.0255L82.6255 137.688ZM116.246 101.912C114.582 101.912 113.238 101.421 112.214 100.44C111.19 99.4587 110.678 98.2 110.678 96.664C110.678 94.872 111.233 93.4 112.342 92.248C113.494 91.096 115.03 90.52 116.95 90.52C118.87 90.52 120.342 91.0107 121.366 91.992C122.39 92.9733 122.902 94.232 122.902 95.768C122.902 97.6027 122.326 99.096 121.174 100.248C120.022 101.357 118.401 101.912 116.31 101.912H116.246ZM112.342 114.136L108.054 112.92V108.12L120.854 106.584H120.982L122.966 107.928V138.2L126.806 138.776V143H108.374V138.776L112.342 138.2V114.136ZM134.579 96.792L130.099 95.96V92.056L142.899 90.52H143.091L144.947 91.864V138.2L149.107 138.776V143H130.483V138.776L134.579 138.2V96.792ZM159.523 158.936C158.627 158.936 157.688 158.872 156.707 158.744C155.768 158.616 155.085 158.445 154.659 158.232V150.552C154.957 150.765 155.597 150.957 156.579 151.128C157.56 151.341 158.456 151.448 159.267 151.448C161.443 151.448 163.171 150.765 164.451 149.4C165.731 148.035 166.904 145.901 167.971 143H164.259L152.291 112.28L149.474 111.512V107.416H168.355V111.512L163.875 112.28L169.187 129.304L171.107 135.768L172.643 129.304L177.571 112.216L173.731 111.512V107.416H188.194V111.512L185.123 112.216C183.331 117.72 181.133 124.184 178.531 131.608C175.971 139.032 174.541 143.085 174.243 143.768C172.963 147.309 171.661 150.147 170.339 152.28C169.059 154.456 167.544 156.099 165.795 157.208C164.045 158.36 161.955 158.936 159.523 158.936ZM250.758 121.176L246.278 122.072C246.278 124.675 245.851 127.064 244.998 129.24C244.144 131.416 243.035 133.251 241.67 134.744C242.992 135.853 244.272 136.707 245.51 137.304C246.747 137.901 248.112 138.243 249.606 138.328V142.36C249.136 142.701 248.198 142.957 246.79 143.128C245.382 143.341 244.23 143.448 243.334 143.448C241.584 143.448 240.07 143.256 238.79 142.872C237.51 142.488 236.166 141.805 234.757 140.824C232.027 142.744 228.166 143.704 223.174 143.704C217.456 143.704 212.976 142.573 209.734 140.312C206.491 138.051 204.87 134.872 204.87 130.776C204.87 128.088 205.808 125.763 207.686 123.8C209.606 121.837 211.91 120.344 214.598 119.32C212.891 117.059 211.568 115.011 210.63 113.176C209.734 111.341 209.286 109.272 209.286 106.968C209.286 104.707 209.926 102.659 211.206 100.824C212.486 98.9467 214.235 97.4747 216.454 96.408C218.672 95.3413 221.147 94.808 223.878 94.808C226.694 94.808 229.062 95.256 230.982 96.152C232.902 97.0053 234.331 98.1573 235.27 99.608C236.208 101.016 236.678 102.531 236.678 104.152C236.678 107.395 235.824 110.019 234.118 112.024C232.411 113.987 229.616 115.949 225.734 117.912C227.398 119.96 229.36 122.243 231.622 124.76C233.883 127.235 235.739 129.155 237.19 130.52L238.214 131.544C239.536 128.984 240.112 125.827 239.942 122.072L235.142 121.176V116.504H250.758V121.176ZM219.014 105.048C219.014 106.925 219.419 108.653 220.23 110.232C221.083 111.811 222.128 113.389 223.366 114.968C225.115 113.347 226.352 111.661 227.078 109.912C227.803 108.12 228.166 106.179 228.166 104.088C228.166 102.68 227.846 101.379 227.206 100.184C226.566 98.9467 225.456 98.328 223.878 98.328C222.384 98.328 221.19 98.904 220.294 100.056C219.44 101.208 219.014 102.872 219.014 105.048ZM224.454 139.16C227.142 139.16 229.211 138.669 230.662 137.688C228.998 136.323 227.291 134.659 225.542 132.696C223.835 130.691 221.744 128.173 219.27 125.144L217.286 122.712C216.347 123.651 215.558 124.739 214.918 125.976C214.32 127.171 214.022 128.451 214.022 129.816C214.022 132.632 214.939 134.893 216.774 136.6C218.651 138.307 221.211 139.16 224.454 139.16ZM269.443 125.4C269.443 121.304 270.253 117.848 271.875 115.032C273.496 112.173 275.672 110.04 278.403 108.632C281.176 107.224 284.205 106.52 287.491 106.52C292.867 106.52 297.069 108.141 300.099 111.384C303.171 114.584 304.707 119.064 304.707 124.824C304.707 129.048 303.896 132.568 302.275 135.384C300.653 138.2 298.477 140.291 295.747 141.656C293.016 143.021 289.965 143.704 286.595 143.704C281.261 143.704 277.059 142.104 273.987 138.904C270.957 135.661 269.443 131.16 269.443 125.4ZM287.235 139.224C289.283 139.224 290.797 138.136 291.779 135.96C292.803 133.741 293.315 130.285 293.315 125.592C293.315 120.6 292.824 116.931 291.843 114.584C290.904 112.195 289.304 111 287.043 111C282.861 111 280.771 115.544 280.771 124.632C280.771 129.581 281.283 133.251 282.307 135.64C283.331 138.029 284.973 139.224 287.235 139.224ZM313.897 114.136L310.121 112.984V107.992L321.769 106.584H321.961L323.625 107.928V110.296L323.561 111.768C325.054 110.36 326.953 109.165 329.257 108.184C331.561 107.203 333.972 106.712 336.489 106.712C339.049 106.712 341.054 107.181 342.505 108.12C343.998 109.016 345.065 110.467 345.705 112.472C346.388 114.477 346.729 117.208 346.729 120.664V138.2L350.313 138.712V143H332.905V138.776L336.041 138.2V120.728C336.041 118.68 335.892 117.101 335.593 115.992C335.337 114.84 334.868 114.008 334.185 113.496C333.502 112.984 332.521 112.728 331.241 112.728C329.278 112.728 327.06 113.645 324.585 115.48V138.2L328.105 138.776V143H310.377V138.776L313.897 138.2V114.136ZM385.155 125.912H359.043V119.192H385.155V125.912ZM405.817 143.576C403.001 143.576 400.91 142.936 399.545 141.656C398.222 140.333 397.561 138.307 397.561 135.576V112.792H393.657V109.08L394.937 108.568C395.961 108.227 396.857 107.864 397.625 107.48C398.478 106.669 399.161 105.603 399.673 104.28C400.313 102.744 401.017 100.589 401.785 97.816H407.737L408.121 107.416H417.273V112.792H408.249V129.752C408.249 132.099 408.313 133.741 408.441 134.68C408.569 135.619 408.803 136.237 409.145 136.536C409.529 136.792 410.211 136.92 411.193 136.92C413.198 136.92 415.097 136.579 416.889 135.896L418.233 139.928C417.038 140.909 415.267 141.763 412.921 142.488C410.574 143.213 408.206 143.576 405.817 143.576ZM428.934 101.912C427.27 101.912 425.926 101.421 424.902 100.44C423.878 99.4587 423.366 98.2 423.366 96.664C423.366 94.872 423.92 93.4 425.03 92.248C426.182 91.096 427.718 90.52 429.638 90.52C431.558 90.52 433.03 91.0107 434.054 91.992C435.078 92.9733 435.59 94.232 435.59 95.768C435.59 97.6027 435.014 99.096 433.862 100.248C432.71 101.357 431.088 101.912 428.998 101.912H428.934ZM425.03 114.136L420.742 112.92V108.12L433.542 106.584H433.67L435.654 107.928V138.2L439.494 138.776V143H421.062V138.776L425.03 138.2V114.136ZM444.13 138.776L447.522 138.2V114.136L443.746 112.984V107.992L455.394 106.584L455.906 106.84L457.186 108.632V111.832C458.551 110.424 460.557 109.229 463.202 108.248C465.847 107.224 468.109 106.712 469.986 106.712C472.29 106.712 474.146 107.096 475.554 107.864C477.005 108.632 478.093 109.827 478.818 111.448C480.269 110.083 482.082 108.952 484.258 108.056C486.477 107.16 488.717 106.712 490.978 106.712C494.733 106.712 497.421 107.8 499.042 109.976C500.706 112.152 501.538 115.715 501.538 120.664V138.2L505.378 138.776V143H488.034V138.776L490.914 138.2V120.92C490.914 117.848 490.551 115.715 489.826 114.52C489.143 113.325 487.863 112.728 485.986 112.728C484.023 112.728 481.975 113.56 479.842 115.224C480.098 116.803 480.226 118.616 480.226 120.664V138.2L483.81 138.776V143H466.338V138.776L469.538 138.2V120.728C469.538 117.699 469.197 115.608 468.514 114.456C467.874 113.304 466.637 112.728 464.802 112.728C463.607 112.728 462.413 113.005 461.218 113.56C460.066 114.072 459.063 114.712 458.21 115.48V138.2L461.666 138.776V143H444.13V138.776ZM526.013 143.704C520.167 143.704 515.837 142.061 513.021 138.776C510.205 135.448 508.797 130.925 508.797 125.208C508.797 121.325 509.522 117.976 510.973 115.16C512.423 112.344 514.45 110.211 517.053 108.76C519.698 107.267 522.791 106.52 526.333 106.52C530.813 106.52 534.226 107.651 536.573 109.912C538.962 112.173 540.199 115.373 540.285 119.512C540.285 122.243 540.093 124.44 539.708 126.104H519.677C519.89 129.731 520.765 132.504 522.301 134.424C523.879 136.301 526.077 137.24 528.893 137.24C530.471 137.24 532.114 136.984 533.821 136.472C535.57 135.917 536.978 135.299 538.045 134.616L539.837 138.52C538.727 139.757 536.829 140.931 534.141 142.04C531.495 143.149 528.786 143.704 526.013 143.704ZM530.109 121.88L530.173 119.192C530.173 116.504 529.81 114.456 529.085 113.048C528.359 111.64 527.122 110.936 525.373 110.936C523.581 110.936 522.194 111.725 521.213 113.304C520.231 114.84 519.698 117.699 519.613 121.88H530.109Z" fill="#272222"/>
<path d="M16.548 183.52L9.436 202H7.784L0.644 183.52H2.156L7.616 197.828L8.596 200.684L9.576 197.828L15.064 183.52H16.548ZM26.728 192.788C26.728 191.575 26.4013 190.632 25.748 189.96C25.0946 189.288 24.1613 188.952 22.948 188.952C21.884 188.952 20.9693 189.185 20.204 189.652C19.4386 190.1 18.8693 190.856 18.496 191.92L17.348 191.192C17.7586 190.091 18.44 189.241 19.392 188.644C20.3626 188.028 21.5573 187.72 22.976 187.72C24.0026 187.72 24.8986 187.907 25.664 188.28C26.448 188.635 27.0546 189.167 27.484 189.876C27.9133 190.585 28.128 191.472 28.128 192.536V199.536C28.128 200.525 28.576 201.02 29.472 201.02C29.864 201.02 30.2 200.955 30.48 200.824L30.396 201.944C30.0786 202.112 29.668 202.196 29.164 202.196C28.7346 202.196 28.3333 202.112 27.96 201.944C27.5866 201.776 27.2786 201.496 27.036 201.104C26.812 200.712 26.7 200.18 26.7 199.508V198.752L27.092 198.724C26.924 199.527 26.5506 200.199 25.972 200.74C25.412 201.263 24.7586 201.655 24.012 201.916C23.2653 202.159 22.5186 202.28 21.772 202.28C20.8946 202.28 20.1106 202.14 19.42 201.86C18.7293 201.58 18.188 201.179 17.796 200.656C17.404 200.115 17.208 199.452 17.208 198.668C17.208 197.623 17.5533 196.783 18.244 196.148C18.9533 195.495 19.9426 195.047 21.212 194.804L27.008 193.656V194.832L21.912 195.84C20.8106 196.064 19.9893 196.391 19.448 196.82C18.9066 197.249 18.636 197.828 18.636 198.556C18.636 199.34 18.9253 199.956 19.504 200.404C20.0826 200.833 20.904 201.048 21.968 201.048C22.5093 201.048 23.06 200.973 23.62 200.824C24.18 200.675 24.6933 200.441 25.16 200.124C25.6453 199.788 26.028 199.377 26.308 198.892C26.588 198.388 26.728 197.781 26.728 197.072V192.788ZM33.3631 202V188H34.5391L34.7071 190.912C35.0618 189.941 35.6311 189.167 36.4151 188.588C37.1991 188.009 38.1418 187.72 39.2431 187.72C39.6164 187.72 39.9524 187.757 40.2511 187.832C40.5498 187.907 40.8018 188.028 41.0071 188.196L40.6711 189.428C40.4658 189.297 40.2418 189.195 39.9991 189.12C39.7564 189.045 39.3924 189.008 38.9071 189.008C38.1978 189.008 37.5258 189.232 36.8911 189.68C36.2564 190.109 35.7431 190.716 35.3511 191.5C34.9591 192.265 34.7631 193.152 34.7631 194.16V202H33.3631ZM44.6451 185.284C44.2905 185.284 44.0011 185.181 43.7771 184.976C43.5718 184.752 43.4691 184.463 43.4691 184.108C43.4691 183.753 43.5718 183.473 43.7771 183.268C44.0011 183.044 44.2905 182.932 44.6451 182.932C44.9998 182.932 45.2798 183.044 45.4851 183.268C45.7091 183.473 45.8211 183.753 45.8211 184.108C45.8211 184.463 45.7091 184.752 45.4851 184.976C45.2798 185.181 44.9998 185.284 44.6451 185.284ZM45.3451 188V202H43.9451V188H45.3451ZM56.0556 202.28C54.7676 202.28 53.6196 201.991 52.6116 201.412C51.6036 200.833 50.8102 200.003 50.2316 198.92C49.6716 197.819 49.3916 196.512 49.3916 195C49.3916 193.488 49.6716 192.191 50.2316 191.108C50.8102 190.007 51.5849 189.167 52.5556 188.588C53.5449 188.009 54.6556 187.72 55.8876 187.72C57.1569 187.72 58.2396 188 59.1356 188.56C60.0316 189.12 60.7222 189.904 61.2076 190.912C61.6929 191.901 61.9356 193.049 61.9356 194.356C61.9356 194.524 61.9262 194.692 61.9076 194.86C61.9076 195.009 61.8982 195.149 61.8796 195.28H50.2596V194.02H61.2636L60.5636 194.216C60.5449 192.611 60.1156 191.332 59.2756 190.38C58.4542 189.428 57.3156 188.952 55.8596 188.952C54.8516 188.952 53.9649 189.195 53.1996 189.68C52.4342 190.147 51.8369 190.837 51.4076 191.752C50.9782 192.648 50.7636 193.731 50.7636 195C50.7636 196.251 50.9782 197.333 51.4076 198.248C51.8556 199.163 52.4716 199.863 53.2556 200.348C54.0582 200.815 54.9822 201.048 56.0276 201.048C57.1102 201.048 58.0342 200.815 58.7996 200.348C59.5836 199.881 60.1902 199.237 60.6196 198.416L61.7396 199.06C61.4036 199.732 60.9556 200.311 60.3956 200.796C59.8356 201.263 59.1916 201.627 58.4636 201.888C57.7356 202.149 56.9329 202.28 56.0556 202.28ZM67.9527 184.108V198.304C67.9527 199.181 68.1581 199.853 68.5687 200.32C68.9981 200.768 69.6141 200.992 70.4167 200.992C70.9394 200.992 71.3967 200.908 71.7887 200.74C72.1994 200.553 72.5634 200.292 72.8807 199.956L73.4127 201.104C73.0581 201.459 72.6101 201.748 72.0687 201.972C71.5274 202.177 70.9207 202.28 70.2487 202.28C69.5207 202.28 68.8767 202.149 68.3167 201.888C67.7567 201.608 67.3181 201.188 67.0007 200.628C66.7021 200.068 66.5527 199.359 66.5527 198.5V184.5L67.9527 184.108ZM73.1887 188V189.204H63.7527V188H73.1887ZM87.2154 188L80.4394 204.576C80.1034 205.435 79.7394 206.116 79.3474 206.62C78.9554 207.124 78.5167 207.479 78.0314 207.684C77.5461 207.908 76.9861 208.02 76.3514 208.02C75.7914 208.02 75.2781 207.936 74.8114 207.768C74.3634 207.6 73.9807 207.367 73.6634 207.068L74.1114 205.864C74.3914 206.2 74.7274 206.433 75.1194 206.564C75.5114 206.713 75.9127 206.788 76.3234 206.788C76.9207 206.788 77.4527 206.611 77.9194 206.256C78.3861 205.92 78.8247 205.248 79.2354 204.24L80.1594 202L78.6754 198.528L74.2514 188H75.8474L80.1314 198.612L80.8314 200.488L81.5874 198.472L85.7034 188H87.2154ZM103.962 187.72C105.268 187.72 106.416 188.009 107.406 188.588C108.414 189.167 109.198 190.007 109.758 191.108C110.336 192.191 110.626 193.488 110.626 195C110.626 196.512 110.336 197.819 109.758 198.92C109.198 200.003 108.414 200.833 107.406 201.412C106.416 201.991 105.268 202.28 103.962 202.28C102.655 202.28 101.498 201.991 100.49 201.412C99.5005 200.833 98.7165 200.003 98.1378 198.92C97.5778 197.819 97.2978 196.512 97.2978 195C97.2978 193.488 97.5778 192.191 98.1378 191.108C98.7165 190.007 99.5005 189.167 100.49 188.588C101.498 188.009 102.655 187.72 103.962 187.72ZM103.962 188.924C102.898 188.924 101.974 189.167 101.19 189.652C100.406 190.137 99.7898 190.837 99.3418 191.752C98.9125 192.648 98.6978 193.731 98.6978 195C98.6978 196.251 98.9125 197.333 99.3418 198.248C99.7898 199.163 100.406 199.863 101.19 200.348C101.974 200.833 102.898 201.076 103.962 201.076C105.026 201.076 105.95 200.833 106.734 200.348C107.518 199.863 108.124 199.163 108.554 198.248C109.002 197.333 109.226 196.251 109.226 195C109.226 193.731 109.002 192.648 108.554 191.752C108.124 190.837 107.518 190.137 106.734 189.652C105.95 189.167 105.026 188.924 103.962 188.924ZM119.507 181.42C120.029 181.42 120.477 181.485 120.851 181.616C121.243 181.747 121.551 181.933 121.775 182.176L121.383 183.296C121.14 183.072 120.879 182.913 120.599 182.82C120.319 182.727 119.992 182.68 119.619 182.68C118.704 182.68 117.995 182.941 117.491 183.464C116.987 183.987 116.735 184.761 116.735 185.788V188V188.504V202H115.335V185.648C115.335 185.013 115.419 184.435 115.587 183.912C115.773 183.389 116.044 182.951 116.399 182.596C116.753 182.223 117.192 181.933 117.715 181.728C118.237 181.523 118.835 181.42 119.507 181.42ZM121.663 188V189.204H112.535V188H121.663ZM136.915 202.28C135.497 202.28 134.237 201.991 133.135 201.412C132.053 200.833 131.287 200.003 130.839 198.92L132.043 198.108C132.379 199.041 132.977 199.769 133.835 200.292C134.713 200.796 135.777 201.048 137.027 201.048C138.259 201.048 139.221 200.805 139.911 200.32C140.621 199.835 140.975 199.191 140.975 198.388C140.975 197.847 140.798 197.38 140.443 196.988C140.107 196.577 139.463 196.269 138.511 196.064L135.235 195.364C133.91 195.084 132.958 194.636 132.379 194.02C131.801 193.385 131.511 192.62 131.511 191.724C131.511 190.977 131.735 190.305 132.183 189.708C132.631 189.111 133.247 188.635 134.031 188.28C134.834 187.907 135.767 187.72 136.831 187.72C138.231 187.72 139.389 188 140.303 188.56C141.218 189.101 141.862 189.923 142.235 191.024L141.059 191.78C140.779 190.791 140.257 190.072 139.491 189.624C138.745 189.176 137.858 188.952 136.831 188.952C136.047 188.952 135.357 189.073 134.759 189.316C134.181 189.54 133.723 189.857 133.387 190.268C133.07 190.66 132.911 191.117 132.911 191.64C132.911 192.181 133.098 192.676 133.471 193.124C133.845 193.553 134.507 193.871 135.459 194.076L138.819 194.804C140.145 195.084 141.069 195.513 141.591 196.092C142.114 196.652 142.375 197.352 142.375 198.192C142.375 199.013 142.151 199.741 141.703 200.376C141.255 200.992 140.621 201.468 139.799 201.804C138.978 202.121 138.017 202.28 136.915 202.28ZM148.644 184.108V198.304C148.644 199.181 148.849 199.853 149.26 200.32C149.689 200.768 150.305 200.992 151.108 200.992C151.631 200.992 152.088 200.908 152.48 200.74C152.891 200.553 153.255 200.292 153.572 199.956L154.104 201.104C153.749 201.459 153.301 201.748 152.76 201.972C152.219 202.177 151.612 202.28 150.94 202.28C150.212 202.28 149.568 202.149 149.008 201.888C148.448 201.608 148.009 201.188 147.692 200.628C147.393 200.068 147.244 199.359 147.244 198.5V184.5L148.644 184.108ZM153.88 188V189.204H144.444V188H153.88ZM162.587 187.72C163.893 187.72 165.041 188.009 166.031 188.588C167.039 189.167 167.823 190.007 168.383 191.108C168.961 192.191 169.251 193.488 169.251 195C169.251 196.512 168.961 197.819 168.383 198.92C167.823 200.003 167.039 200.833 166.031 201.412C165.041 201.991 163.893 202.28 162.587 202.28C161.28 202.28 160.123 201.991 159.115 201.412C158.125 200.833 157.341 200.003 156.763 198.92C156.203 197.819 155.923 196.512 155.923 195C155.923 193.488 156.203 192.191 156.763 191.108C157.341 190.007 158.125 189.167 159.115 188.588C160.123 188.009 161.28 187.72 162.587 187.72ZM162.587 188.924C161.523 188.924 160.599 189.167 159.815 189.652C159.031 190.137 158.415 190.837 157.967 191.752C157.537 192.648 157.323 193.731 157.323 195C157.323 196.251 157.537 197.333 157.967 198.248C158.415 199.163 159.031 199.863 159.815 200.348C160.599 200.833 161.523 201.076 162.587 201.076C163.651 201.076 164.575 200.833 165.359 200.348C166.143 199.863 166.749 199.163 167.179 198.248C167.627 197.333 167.851 196.251 167.851 195C167.851 193.731 167.627 192.648 167.179 191.752C166.749 190.837 166.143 190.137 165.359 189.652C164.575 189.167 163.651 188.924 162.587 188.924ZM173.254 202V188H174.43L174.598 190.912C174.952 189.941 175.522 189.167 176.306 188.588C177.09 188.009 178.032 187.72 179.134 187.72C179.507 187.72 179.843 187.757 180.142 187.832C180.44 187.907 180.692 188.028 180.898 188.196L180.562 189.428C180.356 189.297 180.132 189.195 179.89 189.12C179.647 189.045 179.283 189.008 178.798 189.008C178.088 189.008 177.416 189.232 176.782 189.68C176.147 190.109 175.634 190.716 175.242 191.5C174.85 192.265 174.654 193.152 174.654 194.16V202H173.254ZM188.892 202.28C187.604 202.28 186.456 201.991 185.448 201.412C184.44 200.833 183.646 200.003 183.068 198.92C182.508 197.819 182.228 196.512 182.228 195C182.228 193.488 182.508 192.191 183.068 191.108C183.646 190.007 184.421 189.167 185.392 188.588C186.381 188.009 187.492 187.72 188.724 187.72C189.993 187.72 191.076 188 191.972 188.56C192.868 189.12 193.558 189.904 194.044 190.912C194.529 191.901 194.772 193.049 194.772 194.356C194.772 194.524 194.762 194.692 194.744 194.86C194.744 195.009 194.734 195.149 194.716 195.28H183.096V194.02H194.1L193.4 194.216C193.381 192.611 192.952 191.332 192.112 190.38C191.29 189.428 190.152 188.952 188.696 188.952C187.688 188.952 186.801 189.195 186.036 189.68C185.27 190.147 184.673 190.837 184.244 191.752C183.814 192.648 183.6 193.731 183.6 195C183.6 196.251 183.814 197.333 184.244 198.248C184.692 199.163 185.308 199.863 186.092 200.348C186.894 200.815 187.818 201.048 188.864 201.048C189.946 201.048 190.87 200.815 191.636 200.348C192.42 199.881 193.026 199.237 193.456 198.416L194.576 199.06C194.24 199.732 193.792 200.311 193.232 200.796C192.672 201.263 192.028 201.627 191.3 201.888C190.572 202.149 189.769 202.28 188.892 202.28ZM203.497 202.28C202.079 202.28 200.819 201.991 199.717 201.412C198.635 200.833 197.869 200.003 197.421 198.92L198.625 198.108C198.961 199.041 199.559 199.769 200.417 200.292C201.295 200.796 202.359 201.048 203.609 201.048C204.841 201.048 205.803 200.805 206.493 200.32C207.203 199.835 207.557 199.191 207.557 198.388C207.557 197.847 207.38 197.38 207.025 196.988C206.689 196.577 206.045 196.269 205.093 196.064L201.817 195.364C200.492 195.084 199.54 194.636 198.961 194.02C198.383 193.385 198.093 192.62 198.093 191.724C198.093 190.977 198.317 190.305 198.765 189.708C199.213 189.111 199.829 188.635 200.613 188.28C201.416 187.907 202.349 187.72 203.413 187.72C204.813 187.72 205.971 188 206.885 188.56C207.8 189.101 208.444 189.923 208.817 191.024L207.641 191.78C207.361 190.791 206.839 190.072 206.073 189.624C205.327 189.176 204.44 188.952 203.413 188.952C202.629 188.952 201.939 189.073 201.341 189.316C200.763 189.54 200.305 189.857 199.969 190.268C199.652 190.66 199.493 191.117 199.493 191.64C199.493 192.181 199.68 192.676 200.053 193.124C200.427 193.553 201.089 193.871 202.041 194.076L205.401 194.804C206.727 195.084 207.651 195.513 208.173 196.092C208.696 196.652 208.957 197.352 208.957 198.192C208.957 199.013 208.733 199.741 208.285 200.376C207.837 200.992 207.203 201.468 206.381 201.804C205.56 202.121 204.599 202.28 203.497 202.28ZM238.887 188H240.427L235.667 202H234.267L229.843 189.82L225.503 202H224.103L219.343 188H220.883L224.831 200.32L229.171 188H230.599L234.967 200.32L238.887 188ZM244.391 185.284C244.037 185.284 243.747 185.181 243.523 184.976C243.318 184.752 243.215 184.463 243.215 184.108C243.215 183.753 243.318 183.473 243.523 183.268C243.747 183.044 244.037 182.932 244.391 182.932C244.746 182.932 245.026 183.044 245.231 183.268C245.455 183.473 245.567 183.753 245.567 184.108C245.567 184.463 245.455 184.752 245.231 184.976C245.026 185.181 244.746 185.284 244.391 185.284ZM245.091 188V202H243.691V188H245.091ZM252.414 184.108V198.304C252.414 199.181 252.619 199.853 253.03 200.32C253.459 200.768 254.075 200.992 254.878 200.992C255.4 200.992 255.858 200.908 256.25 200.74C256.66 200.553 257.024 200.292 257.342 199.956L257.874 201.104C257.519 201.459 257.071 201.748 256.53 201.972C255.988 202.177 255.382 202.28 254.71 202.28C253.982 202.28 253.338 202.149 252.778 201.888C252.218 201.608 251.779 201.188 251.462 200.628C251.163 200.068 251.014 199.359 251.014 198.5V184.5L252.414 184.108ZM257.65 188V189.204H248.214V188H257.65ZM260.644 202V181.56H262.044V190.856C262.455 189.867 263.118 189.101 264.032 188.56C264.947 188 266.002 187.72 267.196 187.72C268.242 187.72 269.166 187.916 269.968 188.308C270.771 188.681 271.396 189.26 271.844 190.044C272.311 190.809 272.544 191.761 272.544 192.9V202H271.144V193.348C271.144 191.836 270.762 190.725 269.996 190.016C269.25 189.288 268.27 188.924 267.056 188.924C266.179 188.924 265.358 189.129 264.592 189.54C263.846 189.951 263.23 190.539 262.744 191.304C262.278 192.069 262.044 193.003 262.044 194.104V202H260.644ZM291.084 202.28C290.113 202.28 289.245 202.103 288.48 201.748C287.715 201.393 287.108 200.843 286.66 200.096C286.231 199.331 286.016 198.379 286.016 197.24V188H287.416V196.904C287.416 198.36 287.761 199.415 288.452 200.068C289.161 200.721 290.151 201.048 291.42 201.048C292.167 201.048 292.839 200.917 293.436 200.656C294.052 200.395 294.575 200.031 295.004 199.564C295.433 199.097 295.76 198.565 295.984 197.968C296.227 197.352 296.348 196.708 296.348 196.036V188H297.748V202H296.488L296.432 199.116C296.021 200.105 295.349 200.88 294.416 201.44C293.483 202 292.372 202.28 291.084 202.28ZM302.726 202V188H303.986L304.098 191.5L303.874 191.304C304.136 190.539 304.528 189.885 305.05 189.344C305.573 188.803 306.198 188.401 306.926 188.14C307.654 187.86 308.438 187.72 309.278 187.72C310.324 187.72 311.248 187.916 312.05 188.308C312.853 188.7 313.478 189.279 313.926 190.044C314.393 190.809 314.626 191.771 314.626 192.928V202H313.226V193.376C313.226 191.845 312.844 190.725 312.078 190.016C311.332 189.307 310.352 188.952 309.138 188.952C308.261 188.952 307.44 189.157 306.674 189.568C305.928 189.96 305.312 190.539 304.826 191.304C304.36 192.069 304.126 193.003 304.126 194.104V202H302.726ZM320.161 185.284C319.806 185.284 319.517 185.181 319.293 184.976C319.087 184.752 318.985 184.463 318.985 184.108C318.985 183.753 319.087 183.473 319.293 183.268C319.517 183.044 319.806 182.932 320.161 182.932C320.515 182.932 320.795 183.044 321.001 183.268C321.225 183.473 321.337 183.753 321.337 184.108C321.337 184.463 321.225 184.752 321.001 184.976C320.795 185.181 320.515 185.284 320.161 185.284ZM320.861 188V202H319.461V188H320.861ZM336.471 207.88V197.912L336.695 198.08C336.527 198.976 336.182 199.741 335.659 200.376C335.137 200.992 334.502 201.468 333.755 201.804C333.009 202.121 332.197 202.28 331.319 202.28C330.106 202.28 329.014 201.991 328.043 201.412C327.073 200.833 326.307 200.003 325.747 198.92C325.206 197.819 324.935 196.512 324.935 195C324.935 193.451 325.225 192.135 325.803 191.052C326.382 189.969 327.166 189.148 328.155 188.588C329.145 188.009 330.246 187.72 331.459 187.72C332.318 187.72 333.111 187.888 333.839 188.224C334.567 188.541 335.183 189.008 335.687 189.624C336.191 190.221 336.537 190.949 336.723 191.808L336.527 191.836L336.611 188H337.871V207.88H336.471ZM331.487 201.048C332.477 201.048 333.335 200.805 334.063 200.32C334.81 199.816 335.398 199.107 335.827 198.192C336.257 197.277 336.471 196.195 336.471 194.944C336.471 193.693 336.257 192.62 335.827 191.724C335.417 190.828 334.838 190.147 334.091 189.68C333.345 189.195 332.486 188.952 331.515 188.952C329.929 188.952 328.669 189.493 327.735 190.576C326.802 191.659 326.335 193.133 326.335 195C326.335 196.867 326.793 198.341 327.707 199.424C328.641 200.507 329.901 201.048 331.487 201.048ZM347.795 202.28C346.824 202.28 345.956 202.103 345.191 201.748C344.426 201.393 343.819 200.843 343.371 200.096C342.942 199.331 342.727 198.379 342.727 197.24V188H344.127V196.904C344.127 198.36 344.472 199.415 345.163 200.068C345.872 200.721 346.862 201.048 348.131 201.048C348.878 201.048 349.55 200.917 350.147 200.656C350.763 200.395 351.286 200.031 351.715 199.564C352.144 199.097 352.471 198.565 352.695 197.968C352.938 197.352 353.059 196.708 353.059 196.036V188H354.459V202H353.199L353.143 199.116C352.732 200.105 352.06 200.88 351.127 201.44C350.194 202 349.083 202.28 347.795 202.28ZM365.149 202.28C363.861 202.28 362.713 201.991 361.705 201.412C360.697 200.833 359.904 200.003 359.325 198.92C358.765 197.819 358.485 196.512 358.485 195C358.485 193.488 358.765 192.191 359.325 191.108C359.904 190.007 360.679 189.167 361.649 188.588C362.639 188.009 363.749 187.72 364.981 187.72C366.251 187.72 367.333 188 368.229 188.56C369.125 189.12 369.816 189.904 370.301 190.912C370.787 191.901 371.029 193.049 371.029 194.356C371.029 194.524 371.02 194.692 371.001 194.86C371.001 195.009 370.992 195.149 370.973 195.28H359.353V194.02H370.357L369.657 194.216C369.639 192.611 369.209 191.332 368.369 190.38C367.548 189.428 366.409 188.952 364.953 188.952C363.945 188.952 363.059 189.195 362.293 189.68C361.528 190.147 360.931 190.837 360.501 191.752C360.072 192.648 359.857 193.731 359.857 195C359.857 196.251 360.072 197.333 360.501 198.248C360.949 199.163 361.565 199.863 362.349 200.348C363.152 200.815 364.076 201.048 365.121 201.048C366.204 201.048 367.128 200.815 367.893 200.348C368.677 199.881 369.284 199.237 369.713 198.416L370.833 199.06C370.497 199.732 370.049 200.311 369.489 200.796C368.929 201.263 368.285 201.627 367.557 201.888C366.829 202.149 366.027 202.28 365.149 202.28ZM392.369 192.788C392.369 191.575 392.042 190.632 391.389 189.96C390.735 189.288 389.802 188.952 388.589 188.952C387.525 188.952 386.61 189.185 385.845 189.652C385.079 190.1 384.51 190.856 384.137 191.92L382.989 191.192C383.399 190.091 384.081 189.241 385.033 188.644C386.003 188.028 387.198 187.72 388.617 187.72C389.643 187.72 390.539 187.907 391.305 188.28C392.089 188.635 392.695 189.167 393.125 189.876C393.554 190.585 393.769 191.472 393.769 192.536V199.536C393.769 200.525 394.217 201.02 395.113 201.02C395.505 201.02 395.841 200.955 396.121 200.824L396.037 201.944C395.719 202.112 395.309 202.196 394.805 202.196C394.375 202.196 393.974 202.112 393.601 201.944C393.227 201.776 392.919 201.496 392.677 201.104C392.453 200.712 392.341 200.18 392.341 199.508V198.752L392.733 198.724C392.565 199.527 392.191 200.199 391.613 200.74C391.053 201.263 390.399 201.655 389.653 201.916C388.906 202.159 388.159 202.28 387.413 202.28C386.535 202.28 385.751 202.14 385.061 201.86C384.37 201.58 383.829 201.179 383.437 200.656C383.045 200.115 382.849 199.452 382.849 198.668C382.849 197.623 383.194 196.783 383.885 196.148C384.594 195.495 385.583 195.047 386.853 194.804L392.649 193.656V194.832L387.553 195.84C386.451 196.064 385.63 196.391 385.089 196.82C384.547 197.249 384.277 197.828 384.277 198.556C384.277 199.34 384.566 199.956 385.145 200.404C385.723 200.833 386.545 201.048 387.609 201.048C388.15 201.048 388.701 200.973 389.261 200.824C389.821 200.675 390.334 200.441 390.801 200.124C391.286 199.788 391.669 199.377 391.949 198.892C392.229 198.388 392.369 197.781 392.369 197.072V192.788ZM399.004 202V188H400.264L400.376 191.5L400.152 191.304C400.413 190.539 400.805 189.885 401.328 189.344C401.85 188.803 402.476 188.401 403.204 188.14C403.932 187.86 404.716 187.72 405.556 187.72C406.601 187.72 407.525 187.916 408.328 188.308C409.13 188.7 409.756 189.279 410.204 190.044C410.67 190.809 410.904 191.771 410.904 192.928V202H409.504V193.376C409.504 191.845 409.121 190.725 408.356 190.016C407.609 189.307 406.629 188.952 405.416 188.952C404.538 188.952 403.717 189.157 402.952 189.568C402.205 189.96 401.589 190.539 401.104 191.304C400.637 192.069 400.404 193.003 400.404 194.104V202H399.004ZM421.198 202.28C419.985 202.28 418.893 201.991 417.922 201.412C416.951 200.833 416.186 200.003 415.626 198.92C415.085 197.819 414.814 196.512 414.814 195C414.814 193.451 415.103 192.135 415.682 191.052C416.261 189.969 417.045 189.148 418.034 188.588C419.023 188.009 420.125 187.72 421.338 187.72C422.626 187.72 423.727 188.065 424.642 188.756C425.575 189.447 426.201 190.399 426.518 191.612L426.35 191.752V181.56H427.75V202H426.49L426.406 198.108L426.574 198.052C426.406 198.948 426.061 199.713 425.538 200.348C425.034 200.983 424.399 201.468 423.634 201.804C422.887 202.121 422.075 202.28 421.198 202.28ZM421.366 201.048C422.355 201.048 423.223 200.805 423.97 200.32C424.717 199.816 425.295 199.097 425.706 198.164C426.135 197.231 426.35 196.139 426.35 194.888C426.35 193.656 426.135 192.601 425.706 191.724C425.295 190.828 424.717 190.147 423.97 189.68C423.242 189.195 422.393 188.952 421.422 188.952C419.817 188.952 418.547 189.493 417.614 190.576C416.681 191.659 416.214 193.133 416.214 195C416.214 196.867 416.671 198.341 417.586 199.424C418.519 200.507 419.779 201.048 421.366 201.048ZM8.204 220.72C9.51067 220.72 10.6587 221.009 11.648 221.588C12.656 222.167 13.44 223.007 14 224.108C14.5787 225.191 14.868 226.488 14.868 228C14.868 229.512 14.5787 230.819 14 231.92C13.44 233.003 12.656 233.833 11.648 234.412C10.6587 234.991 9.51067 235.28 8.204 235.28C6.89733 235.28 5.74 234.991 4.732 234.412C3.74267 233.833 2.95867 233.003 2.38 231.92C1.82 230.819 1.54 229.512 1.54 228C1.54 226.488 1.82 225.191 2.38 224.108C2.95867 223.007 3.74267 222.167 4.732 221.588C5.74 221.009 6.89733 220.72 8.204 220.72ZM8.204 221.924C7.14 221.924 6.216 222.167 5.432 222.652C4.648 223.137 4.032 223.837 3.584 224.752C3.15467 225.648 2.94 226.731 2.94 228C2.94 229.251 3.15467 230.333 3.584 231.248C4.032 232.163 4.648 232.863 5.432 233.348C6.216 233.833 7.14 234.076 8.204 234.076C9.268 234.076 10.192 233.833 10.976 233.348C11.76 232.863 12.3667 232.163 12.796 231.248C13.244 230.333 13.468 229.251 13.468 228C13.468 226.731 13.244 225.648 12.796 224.752C12.3667 223.837 11.76 223.137 10.976 222.652C10.192 222.167 9.268 221.924 8.204 221.924ZM18.8709 235V221H20.0469L20.2149 223.912C20.5696 222.941 21.1389 222.167 21.9229 221.588C22.7069 221.009 23.6496 220.72 24.7509 220.72C25.1242 220.72 25.4602 220.757 25.7589 220.832C26.0576 220.907 26.3096 221.028 26.5149 221.196L26.1789 222.428C25.9736 222.297 25.7496 222.195 25.5069 222.12C25.2642 222.045 24.9002 222.008 24.4149 222.008C23.7056 222.008 23.0336 222.232 22.3989 222.68C21.7642 223.109 21.2509 223.716 20.8589 224.5C20.4669 225.265 20.2709 226.152 20.2709 227.16V235H18.8709ZM34.2567 235.28C33.0434 235.28 31.9514 234.991 30.9807 234.412C30.01 233.833 29.2447 233.003 28.6847 231.92C28.1434 230.819 27.8727 229.512 27.8727 228C27.8727 226.451 28.162 225.135 28.7407 224.052C29.3194 222.969 30.1034 222.148 31.0927 221.588C32.082 221.009 33.1834 220.72 34.3967 220.72C35.6847 220.72 36.786 221.065 37.7007 221.756C38.634 222.447 39.2594 223.399 39.5767 224.612L39.4087 224.752V214.56H40.8087V235H39.5487L39.4647 231.108L39.6327 231.052C39.4647 231.948 39.1194 232.713 38.5967 233.348C38.0927 233.983 37.458 234.468 36.6927 234.804C35.946 235.121 35.134 235.28 34.2567 235.28ZM34.4247 234.048C35.414 234.048 36.282 233.805 37.0287 233.32C37.7754 232.816 38.354 232.097 38.7647 231.164C39.194 230.231 39.4087 229.139 39.4087 227.888C39.4087 226.656 39.194 225.601 38.7647 224.724C38.354 223.828 37.7754 223.147 37.0287 222.68C36.3007 222.195 35.4514 221.952 34.4807 221.952C32.8754 221.952 31.606 222.493 30.6727 223.576C29.7394 224.659 29.2727 226.133 29.2727 228C29.2727 229.867 29.73 231.341 30.6447 232.424C31.578 233.507 32.838 234.048 34.4247 234.048ZM46.5045 218.284C46.1498 218.284 45.8605 218.181 45.6365 217.976C45.4312 217.752 45.3285 217.463 45.3285 217.108C45.3285 216.753 45.4312 216.473 45.6365 216.268C45.8605 216.044 46.1498 215.932 46.5045 215.932C46.8592 215.932 47.1392 216.044 47.3445 216.268C47.5685 216.473 47.6805 216.753 47.6805 217.108C47.6805 217.463 47.5685 217.752 47.3445 217.976C47.1392 218.181 46.8592 218.284 46.5045 218.284ZM47.2045 221V235H45.8045V221H47.2045ZM52.2029 235V221H53.4629L53.5749 224.5L53.3509 224.304C53.6123 223.539 54.0043 222.885 54.5269 222.344C55.0496 221.803 55.6749 221.401 56.4029 221.14C57.1309 220.86 57.9149 220.72 58.7549 220.72C59.8003 220.72 60.7243 220.916 61.5269 221.308C62.3296 221.7 62.9549 222.279 63.4029 223.044C63.8696 223.809 64.1029 224.771 64.1029 225.928V235H62.7029V226.376C62.7029 224.845 62.3203 223.725 61.5549 223.016C60.8083 222.307 59.8283 221.952 58.6149 221.952C57.7376 221.952 56.9163 222.157 56.1509 222.568C55.4043 222.96 54.7883 223.539 54.3029 224.304C53.8363 225.069 53.6029 226.003 53.6029 227.104V235H52.2029ZM77.5053 225.788C77.5053 224.575 77.1786 223.632 76.5253 222.96C75.872 222.288 74.9386 221.952 73.7253 221.952C72.6613 221.952 71.7466 222.185 70.9813 222.652C70.216 223.1 69.6466 223.856 69.2733 224.92L68.1253 224.192C68.536 223.091 69.2173 222.241 70.1693 221.644C71.14 221.028 72.3346 220.72 73.7533 220.72C74.78 220.72 75.676 220.907 76.4413 221.28C77.2253 221.635 77.832 222.167 78.2613 222.876C78.6906 223.585 78.9053 224.472 78.9053 225.536V232.536C78.9053 233.525 79.3533 234.02 80.2493 234.02C80.6413 234.02 80.9773 233.955 81.2573 233.824L81.1733 234.944C80.856 235.112 80.4453 235.196 79.9413 235.196C79.512 235.196 79.1106 235.112 78.7373 234.944C78.364 234.776 78.056 234.496 77.8133 234.104C77.5893 233.712 77.4773 233.18 77.4773 232.508V231.752L77.8693 231.724C77.7013 232.527 77.328 233.199 76.7493 233.74C76.1893 234.263 75.536 234.655 74.7893 234.916C74.0426 235.159 73.296 235.28 72.5493 235.28C71.672 235.28 70.888 235.14 70.1973 234.86C69.5066 234.58 68.9653 234.179 68.5733 233.656C68.1813 233.115 67.9853 232.452 67.9853 231.668C67.9853 230.623 68.3306 229.783 69.0213 229.148C69.7306 228.495 70.72 228.047 71.9893 227.804L77.7853 226.656V227.832L72.6893 228.84C71.588 229.064 70.7666 229.391 70.2253 229.82C69.684 230.249 69.4133 230.828 69.4133 231.556C69.4133 232.34 69.7026 232.956 70.2813 233.404C70.86 233.833 71.6813 234.048 72.7453 234.048C73.2866 234.048 73.8373 233.973 74.3973 233.824C74.9573 233.675 75.4706 233.441 75.9373 233.124C76.4226 232.788 76.8053 232.377 77.0853 231.892C77.3653 231.388 77.5053 230.781 77.5053 230.072V225.788ZM84.1404 235V221H85.3164L85.4844 223.912C85.8391 222.941 86.4084 222.167 87.1924 221.588C87.9764 221.009 88.9191 220.72 90.0204 220.72C90.3938 220.72 90.7298 220.757 91.0284 220.832C91.3271 220.907 91.5791 221.028 91.7844 221.196L91.4484 222.428C91.2431 222.297 91.0191 222.195 90.7764 222.12C90.5338 222.045 90.1698 222.008 89.6844 222.008C88.9751 222.008 88.3031 222.232 87.6684 222.68C87.0338 223.109 86.5204 223.716 86.1284 224.5C85.7364 225.265 85.5404 226.152 85.5404 227.16V235H84.1404ZM105.754 221L98.9785 237.576C98.6425 238.435 98.2785 239.116 97.8865 239.62C97.4945 240.124 97.0558 240.479 96.5705 240.684C96.0851 240.908 95.5251 241.02 94.8905 241.02C94.3305 241.02 93.8171 240.936 93.3505 240.768C92.9025 240.6 92.5198 240.367 92.2025 240.068L92.6505 238.864C92.9305 239.2 93.2665 239.433 93.6585 239.564C94.0505 239.713 94.4518 239.788 94.8625 239.788C95.4598 239.788 95.9918 239.611 96.4585 239.256C96.9251 238.92 97.3638 238.248 97.7745 237.24L98.6985 235L97.2145 231.528L92.7905 221H94.3865L98.6705 231.612L99.3705 233.488L100.126 231.472L104.242 221H105.754ZM116.789 240.88V221H118.049L118.161 224.892L117.965 224.668C118.208 223.865 118.581 223.165 119.085 222.568C119.608 221.971 120.242 221.513 120.989 221.196C121.736 220.879 122.548 220.72 123.425 220.72C124.62 220.72 125.693 221.009 126.645 221.588C127.597 222.167 128.353 222.997 128.913 224.08C129.473 225.163 129.753 226.469 129.753 228C129.753 229.512 129.473 230.819 128.913 231.92C128.353 233.003 127.588 233.833 126.617 234.412C125.665 234.991 124.582 235.28 123.369 235.28C122.081 235.28 120.961 234.944 120.009 234.272C119.057 233.581 118.394 232.657 118.021 231.5L118.189 231.248V240.88H116.789ZM123.201 234.048C124.788 234.048 126.038 233.507 126.953 232.424C127.886 231.341 128.353 229.867 128.353 228C128.353 226.133 127.896 224.659 126.981 223.576C126.066 222.493 124.825 221.952 123.257 221.952C122.268 221.952 121.39 222.204 120.625 222.708C119.878 223.193 119.281 223.893 118.833 224.808C118.404 225.704 118.189 226.768 118.189 228C118.189 229.213 118.404 230.277 118.833 231.192C119.262 232.107 119.85 232.816 120.597 233.32C121.362 233.805 122.23 234.048 123.201 234.048ZM133.797 235V221H134.973L135.141 223.912C135.495 222.941 136.065 222.167 136.849 221.588C137.633 221.009 138.575 220.72 139.677 220.72C140.05 220.72 140.386 220.757 140.685 220.832C140.983 220.907 141.235 221.028 141.441 221.196L141.105 222.428C140.899 222.297 140.675 222.195 140.433 222.12C140.19 222.045 139.826 222.008 139.341 222.008C138.631 222.008 137.959 222.232 137.325 222.68C136.69 223.109 136.177 223.716 135.785 224.5C135.393 225.265 135.197 226.152 135.197 227.16V235H133.797ZM149.434 220.72C150.741 220.72 151.889 221.009 152.878 221.588C153.886 222.167 154.67 223.007 155.23 224.108C155.809 225.191 156.098 226.488 156.098 228C156.098 229.512 155.809 230.819 155.23 231.92C154.67 233.003 153.886 233.833 152.878 234.412C151.889 234.991 150.741 235.28 149.434 235.28C148.128 235.28 146.97 234.991 145.962 234.412C144.973 233.833 144.189 233.003 143.61 231.92C143.05 230.819 142.77 229.512 142.77 228C142.77 226.488 143.05 225.191 143.61 224.108C144.189 223.007 144.973 222.167 145.962 221.588C146.97 221.009 148.128 220.72 149.434 220.72ZM149.434 221.924C148.37 221.924 147.446 222.167 146.662 222.652C145.878 223.137 145.262 223.837 144.814 224.752C144.385 225.648 144.17 226.731 144.17 228C144.17 229.251 144.385 230.333 144.814 231.248C145.262 232.163 145.878 232.863 146.662 233.348C147.446 233.833 148.37 234.076 149.434 234.076C150.498 234.076 151.422 233.833 152.206 233.348C152.99 232.863 153.597 232.163 154.026 231.248C154.474 230.333 154.698 229.251 154.698 228C154.698 226.731 154.474 225.648 154.026 224.752C153.597 223.837 152.99 223.137 152.206 222.652C151.422 222.167 150.498 221.924 149.434 221.924ZM165.561 235.28C164.348 235.28 163.256 234.991 162.285 234.412C161.315 233.833 160.549 233.003 159.989 231.92C159.448 230.819 159.177 229.512 159.177 228C159.177 226.451 159.467 225.135 160.045 224.052C160.624 222.969 161.408 222.148 162.397 221.588C163.387 221.009 164.488 220.72 165.701 220.72C166.989 220.72 168.091 221.065 169.005 221.756C169.939 222.447 170.564 223.399 170.881 224.612L170.713 224.752V214.56H172.113V235H170.853L170.769 231.108L170.937 231.052C170.769 231.948 170.424 232.713 169.901 233.348C169.397 233.983 168.763 234.468 167.997 234.804C167.251 235.121 166.439 235.28 165.561 235.28ZM165.729 234.048C166.719 234.048 167.587 233.805 168.333 233.32C169.08 232.816 169.659 232.097 170.069 231.164C170.499 230.231 170.713 229.139 170.713 227.888C170.713 226.656 170.499 225.601 170.069 224.724C169.659 223.828 169.08 223.147 168.333 222.68C167.605 222.195 166.756 221.952 165.785 221.952C164.18 221.952 162.911 222.493 161.977 223.576C161.044 224.659 160.577 226.133 160.577 228C160.577 229.867 161.035 231.341 161.949 232.424C162.883 233.507 164.143 234.048 165.729 234.048ZM182.037 235.28C181.067 235.28 180.199 235.103 179.433 234.748C178.668 234.393 178.061 233.843 177.613 233.096C177.184 232.331 176.969 231.379 176.969 230.24V221H178.369V229.904C178.369 231.36 178.715 232.415 179.405 233.068C180.115 233.721 181.104 234.048 182.373 234.048C183.12 234.048 183.792 233.917 184.389 233.656C185.005 233.395 185.528 233.031 185.957 232.564C186.387 232.097 186.713 231.565 186.937 230.968C187.18 230.352 187.301 229.708 187.301 229.036V221H188.701V235H187.441L187.385 232.116C186.975 233.105 186.303 233.88 185.369 234.44C184.436 235 183.325 235.28 182.037 235.28ZM199.336 220.72C200.288 220.72 201.137 220.869 201.884 221.168C202.63 221.467 203.265 221.896 203.788 222.456C204.31 223.016 204.712 223.697 204.992 224.5L203.676 225.116C203.377 224.108 202.854 223.333 202.108 222.792C201.38 222.232 200.446 221.952 199.308 221.952C198.281 221.952 197.376 222.195 196.592 222.68C195.808 223.147 195.201 223.837 194.772 224.752C194.342 225.648 194.128 226.731 194.128 228C194.128 229.251 194.342 230.333 194.772 231.248C195.201 232.163 195.798 232.863 196.564 233.348C197.329 233.815 198.234 234.048 199.28 234.048C200.064 234.048 200.773 233.917 201.408 233.656C202.061 233.395 202.593 233.012 203.004 232.508C203.433 232.004 203.713 231.407 203.844 230.716L205.132 231.164C204.889 232.023 204.488 232.76 203.928 233.376C203.386 233.992 202.724 234.468 201.94 234.804C201.156 235.121 200.278 235.28 199.308 235.28C198.038 235.28 196.9 234.991 195.892 234.412C194.902 233.833 194.128 233.003 193.568 231.92C193.008 230.819 192.728 229.512 192.728 228C192.728 226.488 193.008 225.191 193.568 224.108C194.146 223.007 194.93 222.167 195.92 221.588C196.928 221.009 198.066 220.72 199.336 220.72ZM211.207 217.108V231.304C211.207 232.181 211.412 232.853 211.823 233.32C212.252 233.768 212.868 233.992 213.671 233.992C214.193 233.992 214.651 233.908 215.043 233.74C215.453 233.553 215.817 233.292 216.135 232.956L216.667 234.104C216.312 234.459 215.864 234.748 215.323 234.972C214.781 235.177 214.175 235.28 213.503 235.28C212.775 235.28 212.131 235.149 211.571 234.888C211.011 234.608 210.572 234.188 210.255 233.628C209.956 233.068 209.807 232.359 209.807 231.5V217.5L211.207 217.108ZM216.443 221V222.204H207.007V221H216.443ZM224.169 235.28C222.751 235.28 221.491 234.991 220.389 234.412C219.307 233.833 218.541 233.003 218.093 231.92L219.297 231.108C219.633 232.041 220.231 232.769 221.089 233.292C221.967 233.796 223.031 234.048 224.281 234.048C225.513 234.048 226.475 233.805 227.165 233.32C227.875 232.835 228.229 232.191 228.229 231.388C228.229 230.847 228.052 230.38 227.697 229.988C227.361 229.577 226.717 229.269 225.765 229.064L222.489 228.364C221.164 228.084 220.212 227.636 219.633 227.02C219.055 226.385 218.765 225.62 218.765 224.724C218.765 223.977 218.989 223.305 219.437 222.708C219.885 222.111 220.501 221.635 221.285 221.28C222.088 220.907 223.021 220.72 224.085 220.72C225.485 220.72 226.643 221 227.557 221.56C228.472 222.101 229.116 222.923 229.489 224.024L228.313 224.78C228.033 223.791 227.511 223.072 226.745 222.624C225.999 222.176 225.112 221.952 224.085 221.952C223.301 221.952 222.611 222.073 222.013 222.316C221.435 222.54 220.977 222.857 220.641 223.268C220.324 223.66 220.165 224.117 220.165 224.64C220.165 225.181 220.352 225.676 220.725 226.124C221.099 226.553 221.761 226.871 222.713 227.076L226.073 227.804C227.399 228.084 228.323 228.513 228.845 229.092C229.368 229.652 229.629 230.352 229.629 231.192C229.629 232.013 229.405 232.741 228.957 233.376C228.509 233.992 227.875 234.468 227.053 234.804C226.232 235.121 225.271 235.28 224.169 235.28ZM243.051 218.284C242.697 218.284 242.407 218.181 242.183 217.976C241.978 217.752 241.875 217.463 241.875 217.108C241.875 216.753 241.978 216.473 242.183 216.268C242.407 216.044 242.697 215.932 243.051 215.932C243.406 215.932 243.686 216.044 243.891 216.268C244.115 216.473 244.227 216.753 244.227 217.108C244.227 217.463 244.115 217.752 243.891 217.976C243.686 218.181 243.406 218.284 243.051 218.284ZM243.751 221V236.596C243.751 237.623 243.555 238.463 243.163 239.116C242.79 239.769 242.295 240.245 241.679 240.544C241.082 240.861 240.447 241.02 239.775 241.02C239.271 241.02 238.814 240.945 238.403 240.796C237.974 240.647 237.619 240.46 237.339 240.236L237.675 238.92C237.918 239.144 238.226 239.321 238.599 239.452C238.954 239.601 239.337 239.676 239.747 239.676C240.531 239.676 241.157 239.405 241.623 238.864C242.109 238.341 242.351 237.548 242.351 236.484V221H243.751ZM253.678 235.28C252.707 235.28 251.839 235.103 251.074 234.748C250.308 234.393 249.702 233.843 249.254 233.096C248.824 232.331 248.61 231.379 248.61 230.24V221H250.01V229.904C250.01 231.36 250.355 232.415 251.046 233.068C251.755 233.721 252.744 234.048 254.014 234.048C254.76 234.048 255.432 233.917 256.03 233.656C256.646 233.395 257.168 233.031 257.598 232.564C258.027 232.097 258.354 231.565 258.578 230.968C258.82 230.352 258.942 229.708 258.942 229.036V221H260.342V235H259.082L259.026 232.116C258.615 233.105 257.943 233.88 257.01 234.44C256.076 235 254.966 235.28 253.678 235.28ZM270.052 235.28C268.633 235.28 267.373 234.991 266.272 234.412C265.189 233.833 264.424 233.003 263.976 231.92L265.18 231.108C265.516 232.041 266.113 232.769 266.972 233.292C267.849 233.796 268.913 234.048 270.164 234.048C271.396 234.048 272.357 233.805 273.048 233.32C273.757 232.835 274.112 232.191 274.112 231.388C274.112 230.847 273.935 230.38 273.58 229.988C273.244 229.577 272.6 229.269 271.648 229.064L268.372 228.364C267.047 228.084 266.095 227.636 265.516 227.02C264.937 226.385 264.648 225.62 264.648 224.724C264.648 223.977 264.872 223.305 265.32 222.708C265.768 222.111 266.384 221.635 267.168 221.28C267.971 220.907 268.904 220.72 269.968 220.72C271.368 220.72 272.525 221 273.44 221.56C274.355 222.101 274.999 222.923 275.372 224.024L274.196 224.78C273.916 223.791 273.393 223.072 272.628 222.624C271.881 222.176 270.995 221.952 269.968 221.952C269.184 221.952 268.493 222.073 267.896 222.316C267.317 222.54 266.86 222.857 266.524 223.268C266.207 223.66 266.048 224.117 266.048 224.64C266.048 225.181 266.235 225.676 266.608 226.124C266.981 226.553 267.644 226.871 268.596 227.076L271.956 227.804C273.281 228.084 274.205 228.513 274.728 229.092C275.251 229.652 275.512 230.352 275.512 231.192C275.512 232.013 275.288 232.741 274.84 233.376C274.392 233.992 273.757 234.468 272.936 234.804C272.115 235.121 271.153 235.28 270.052 235.28ZM281.781 217.108V231.304C281.781 232.181 281.986 232.853 282.397 233.32C282.826 233.768 283.442 233.992 284.245 233.992C284.768 233.992 285.225 233.908 285.617 233.74C286.028 233.553 286.392 233.292 286.709 232.956L287.241 234.104C286.886 234.459 286.438 234.748 285.897 234.972C285.356 235.177 284.749 235.28 284.077 235.28C283.349 235.28 282.705 235.149 282.145 234.888C281.585 234.608 281.146 234.188 280.829 233.628C280.53 233.068 280.381 232.359 280.381 231.5V217.5L281.781 217.108ZM287.017 221V222.204H277.581V221H287.017ZM303.257 214.42C303.779 214.42 304.227 214.485 304.601 214.616C304.993 214.747 305.301 214.933 305.525 215.176L305.133 216.296C304.89 216.072 304.629 215.913 304.349 215.82C304.069 215.727 303.742 215.68 303.369 215.68C302.454 215.68 301.745 215.941 301.241 216.464C300.737 216.987 300.485 217.761 300.485 218.788V221V221.504V235H299.085V218.648C299.085 218.013 299.169 217.435 299.337 216.912C299.523 216.389 299.794 215.951 300.149 215.596C300.503 215.223 300.942 214.933 301.465 214.728C301.987 214.523 302.585 214.42 303.257 214.42ZM305.413 221V222.204H296.285V221H305.413ZM313.306 220.72C314.612 220.72 315.76 221.009 316.75 221.588C317.758 222.167 318.542 223.007 319.102 224.108C319.68 225.191 319.97 226.488 319.97 228C319.97 229.512 319.68 230.819 319.102 231.92C318.542 233.003 317.758 233.833 316.75 234.412C315.76 234.991 314.612 235.28 313.306 235.28C311.999 235.28 310.842 234.991 309.834 234.412C308.844 233.833 308.06 233.003 307.482 231.92C306.922 230.819 306.642 229.512 306.642 228C306.642 226.488 306.922 225.191 307.482 224.108C308.06 223.007 308.844 222.167 309.834 221.588C310.842 221.009 311.999 220.72 313.306 220.72ZM313.306 221.924C312.242 221.924 311.318 222.167 310.534 222.652C309.75 223.137 309.134 223.837 308.686 224.752C308.256 225.648 308.042 226.731 308.042 228C308.042 229.251 308.256 230.333 308.686 231.248C309.134 232.163 309.75 232.863 310.534 233.348C311.318 233.833 312.242 234.076 313.306 234.076C314.37 234.076 315.294 233.833 316.078 233.348C316.862 232.863 317.468 232.163 317.898 231.248C318.346 230.333 318.57 229.251 318.57 228C318.57 226.731 318.346 225.648 317.898 224.752C317.468 223.837 316.862 223.137 316.078 222.652C315.294 222.167 314.37 221.924 313.306 221.924ZM323.972 235V221H325.148L325.316 223.912C325.671 222.941 326.24 222.167 327.024 221.588C327.808 221.009 328.751 220.72 329.852 220.72C330.226 220.72 330.562 220.757 330.86 220.832C331.159 220.907 331.411 221.028 331.616 221.196L331.28 222.428C331.075 222.297 330.851 222.195 330.608 222.12C330.366 222.045 330.002 222.008 329.516 222.008C328.807 222.008 328.135 222.232 327.5 222.68C326.866 223.109 326.352 223.716 325.96 224.5C325.568 225.265 325.372 226.152 325.372 227.16V235H323.972ZM352.969 221L346.193 237.576C345.857 238.435 345.493 239.116 345.101 239.62C344.709 240.124 344.271 240.479 343.785 240.684C343.3 240.908 342.74 241.02 342.105 241.02C341.545 241.02 341.032 240.936 340.565 240.768C340.117 240.6 339.735 240.367 339.417 240.068L339.865 238.864C340.145 239.2 340.481 239.433 340.873 239.564C341.265 239.713 341.667 239.788 342.077 239.788C342.675 239.788 343.207 239.611 343.673 239.256C344.14 238.92 344.579 238.248 344.989 237.24L345.913 235L344.429 231.528L340.005 221H341.601L345.885 231.612L346.585 233.488L347.341 231.472L351.457 221H352.969ZM361.458 220.72C362.765 220.72 363.913 221.009 364.902 221.588C365.91 222.167 366.694 223.007 367.254 224.108C367.833 225.191 368.122 226.488 368.122 228C368.122 229.512 367.833 230.819 367.254 231.92C366.694 233.003 365.91 233.833 364.902 234.412C363.913 234.991 362.765 235.28 361.458 235.28C360.151 235.28 358.994 234.991 357.986 234.412C356.997 233.833 356.213 233.003 355.634 231.92C355.074 230.819 354.794 229.512 354.794 228C354.794 226.488 355.074 225.191 355.634 224.108C356.213 223.007 356.997 222.167 357.986 221.588C358.994 221.009 360.151 220.72 361.458 220.72ZM361.458 221.924C360.394 221.924 359.47 222.167 358.686 222.652C357.902 223.137 357.286 223.837 356.838 224.752C356.409 225.648 356.194 226.731 356.194 228C356.194 229.251 356.409 230.333 356.838 231.248C357.286 232.163 357.902 232.863 358.686 233.348C359.47 233.833 360.394 234.076 361.458 234.076C362.522 234.076 363.446 233.833 364.23 233.348C365.014 232.863 365.621 232.163 366.05 231.248C366.498 230.333 366.722 229.251 366.722 228C366.722 226.731 366.498 225.648 366.05 224.752C365.621 223.837 365.014 223.137 364.23 222.652C363.446 222.167 362.522 221.924 361.458 221.924ZM377.053 235.28C376.082 235.28 375.214 235.103 374.449 234.748C373.683 234.393 373.077 233.843 372.629 233.096C372.199 232.331 371.985 231.379 371.985 230.24V221H373.385V229.904C373.385 231.36 373.73 232.415 374.421 233.068C375.13 233.721 376.119 234.048 377.389 234.048C378.135 234.048 378.807 233.917 379.405 233.656C380.021 233.395 380.543 233.031 380.973 232.564C381.402 232.097 381.729 231.565 381.953 230.968C382.195 230.352 382.317 229.708 382.317 229.036V221H383.717V235H382.457L382.401 232.116C381.99 233.105 381.318 233.88 380.385 234.44C379.451 235 378.341 235.28 377.053 235.28ZM390.151 216.52V225.48L389.983 229.68H388.863L388.695 225.48V216.52H390.151ZM389.423 232.704C389.796 232.704 390.095 232.825 390.319 233.068C390.562 233.292 390.683 233.591 390.683 233.964C390.683 234.337 390.562 234.645 390.319 234.888C390.095 235.112 389.796 235.224 389.423 235.224C389.05 235.224 388.742 235.112 388.499 234.888C388.275 234.645 388.163 234.337 388.163 233.964C388.163 233.591 388.275 233.292 388.499 233.068C388.742 232.825 389.05 232.704 389.423 232.704Z" fill="#272222"/>
</svg>
